# xmcd
#
# Track frame offsets:
#	150
#	16077
#	32347
#	50497
#	67198
#	82137
#	97203
#	112775
#	127192
#	143020
#	161094
#	172146
#	185984
#	194458
#	213557
#	227764
#	243117
#	263754
#	276703
#
# Disc length: 3858
#
# Revision: 3
# Processed by: cddbd v1.5.1PL0 Copyright (c) Steve Scherf et al.
# Submitted via: CDex 1.30Release
# Normalized: r2:DSETVAR1
#
DISCID=230f1013
DTITLE=Various Artist - Gathering of Nations/ Pow Wow
DYEAR=1999
DGENRE=Native American
TTITLE0=The Tribe - Sr Girl's Fancy
TTITLE1=Wild Horse - Women's Cloth
TTITLE2=Sage Point - Tiny Tots
TTITLE3=Seekaskootch - Men's Grass
TTITLE4=Southern Cree - Boy's Northern Traditional
TTITLE5=White Clay - Teen Girl's Fancy
TTITLE6=Stanley Park - Ladies Jingle
TTITLE7=The Boyz - Ladies Shawl
TTITLE8=Fly'n Eagle - Girl's Jingle
TTITLE9=Bear Springs - Ladies Cloth
TTITLE10=High Noon - Men's Grass
TTITLE11=Maskquaki Nation - Men's Northern Fancy
TTITLE12=MGM - Boy's Fancy
TTITLE13=Painted Horse - Men's Northern Fancy
TTITLE14=Northern Cree - Ladies Cloth
TTITLE15=The Tribe - Teen Jingle
TTITLE16=Southern Cree - Men's Grass
TTITLE17=Trail Mix - Jr Boy's Traditional
TTITLE18=Sage Point - Teen Jingle
EXTD=YEAR: 1999 ID3G:  64
EXTT0=
EXTT1=
EXTT2=
EXTT3=
EXTT4=
EXTT5=
EXTT6=
EXTT7=
EXTT8=
EXTT9=
EXTT10=
EXTT11=
EXTT12=
EXTT13=
EXTT14=
EXTT15=
EXTT16=
EXTT17=
EXTT18=
PLAYORDER=
